# xmcd
#
# Track frame offsets:
#	150
#	15033
#	29774
#	43359
#	59906
#	79172
#	101515
#	120724
#	141417
#	158405
#	175861
#	194936
#
# Disc length: 2776 seconds
#
# Revision: 1
# Processed by: cddbd v1.5.2PL0 Copyright (c) Steve Scherf et al.
# Submitted via: audiograbber 1.83.01
#
DISCID=ab0ad60c
DTITLE=Beccy Cole - Sweet Rebecca
DYEAR=2015
DGENRE=Country
TTITLE0=Sweet Rebecca
TTITLE1=Damn Fool
TTITLE2=Treehouse
TTITLE3=Precious Times
TTITLE4=Happy 16
TTITLE5=I Love You
TTITLE6=Broken Soldiers
TTITLE7=I'm Easy
TTITLE8=Tea For Three
TTITLE9=Off My Chest
TTITLE10=Songs Remember Me
TTITLE11=Bumcrack
EXTD=
EXTT0=
EXTT1=
EXTT2=
EXTT3=
EXTT4=
EXTT5=
EXTT6=
EXTT7=
EXTT8=
EXTT9=
EXTT10=
EXTT11=
PLAYORDER=
